<?xml version="1.0" encoding="UTF-8"?>
<svg id="a" data-name="Layer 1" xmlns="http://www.w3.org/2000/svg" viewBox="0 0 529.87 529.87">
  <defs>
    <style>
      .b {
        fill: #fff;
      }

      .c {
        fill: #0080ff;
      }
    </style>
  </defs>
  <path class="c" d="m529.87,264.93c0,133.99-99.47,244.75-228.59,262.46v-189.07h60.71l9.88-74.56h-70.12c0-41.68-16-100.97,72.94-88.26v-64c-114.82-18.36-162.82,10.82-153.88,152.26h-66.35v74.09l64.47.47v187.57C94.55,504.11,0,395.56,0,264.93,0,118.61,118.62,0,264.93,0s264.94,118.61,264.94,264.93Z"/>
  <path class="b" d="m301.75,263.76h70.12l-9.88,74.56h-60.71v189.07c-11.88,1.64-24.02,2.48-36.35,2.48-15.69,0-31.06-1.36-46-3.98v-187.57l-64.47-.47v-74.09h66.35c-8.94-141.44,39.06-170.62,153.88-152.26v64c-88.94-12.71-72.94,46.58-72.94,88.26Z"/>
</svg>